<?xml version="1.0" standalone="no"?> <!DOCTYPE svg PUBLIC "-//W3C//DTD SVG 20010904//EN" "http://www.w3.org/TR/2001/REC-SVG-20010904/DTD/svg10.dtd"> <svg version="1.0" xmlns="http://www.w3.org/2000/svg" width="1344.000000pt" height="1344.000000pt" viewBox="0 0 1344.000000 1344.000000" preserveAspectRatio="xMidYMid meet"> <g transform="translate(0.000000,1344.000000) scale(0.100000,-0.100000)" fill="#ff0000" stroke="none"> <path d="M10680 8433 c-101 -44 -130 -63 -185 -119 -90 -91 -125 -171 -125 -287 0 -47 -5 -88 -11 -94 -8 -8 -8 -17 0 -32 8 -15 11 -167 10 -519 -1 -522 -1 -518 42 -592 5 -8 13 -24 18 -36 5 -11 33 -46 61 -78 109 -118 286 -171 440 -131 173 45 321 191 344 340 3 22 8 282 10 578 4 537 -1 644 -31 702 -6 11 -19 37 -29 58 -29 59 -124 150 -184 178 -104 48 -110 49 -218 48 -74 0 -118 -5 -142 -16z m62 -128 l4 -30 11 26 c13 30 31 39 77 39 69 0 216 -59 216 -86 0 -8 6 -14 14 -14 24 0 29 -20 10 -36 -18 -15 -18 -15 6 -10 35 7 60 -29 34 -49 -16 -12 -16 -13 4 -24 18 -10 22 -9 22 4 0 8 7 15 16 15 13 0 15 -12 13 -72 -1 -40 1 -85 5 -100 6 -22 4 -27 -14 -33 -19 -6 -19 -8 -6 -18 14 -11 16 -73 16 -524 l1 -513 -46 -65 c-26 -36 -51 -65 -56 -65 -5 0 -9 -7 -9 -15 0 -9 -8 -19 -17 -22 -10 -4 -20 -9 -23 -12 -3 -3 -34 -16 -70 -29 -79 -27 -210 -31 -230 -7 -7 8 -25 15 -41 15 -18 0 -32 7 -39 20 -6 11 -15 20 -21 20 -15 0 -98 92 -99 108 0 7 -11 28 -25 46 -19 25 -22 35 -13 44 10 10 10 17 0 32 -6 11 -12 29 -12 39 0 11 -4 23 -10 26 -6 4 -5 13 2 24 9 15 8 24 -5 45 -19 29 -22 72 -6 82 8 5 10 106 6 365 -3 215 -2 361 4 364 5 4 9 27 9 53 0 26 3 76 6 112 6 60 8 65 31 66 32 2 39 10 23 29 -11 13 -10 19 6 38 30 36 78 76 91 77 7 0 32 18 55 40 44 43 54 43 60 -5z"/> <path d="M11124 6906 c-6 -17 2 -36 17 -36 12 0 12 37 -1 45 -6 3 -13 -1 -16 -9z"/> <path d="M2525 8419 c-71 -7 -113 -22 -180 -66 -94 -60 -166 -159 -193 -268 -7 -25 -10 -257 -8 -635 2 -631 1 -611 47 -690 5 -8 13 -25 19 -37 11 -27 106 -121 135 -134 11 -5 39 -20 61 -33 70 -39 192 -58 262 -40 29 8 61 14 70 14 49 0 176 87 227 156 58 77 81 126 90 194 11 88 13 210 4 216 -11 7 -11 691 0 759 5 28 5 96 -1 155 -8 93 -17 123 -49 180 -5 8 -13 24 -18 36 -5 11 -34 43 -65 71 -51 47 -84 67 -181 109 -36 16 -138 22 -220 13z m200 -133 c17 -8 42 -18 58 -21 17 -3 27 -12 27 -24 0 -23 10 -33 24 -22 16 14 61 -25 48 -42 -11 -13 17 -57 37 -57 18 0 23 -20 11 -56 -10 -30 -10 -37 4 -47 23 -18 36 -108 33 -230 -2 -59 0 -110 5 -113 4 -3 5 -130 1 -282 -3 -152 -7 -304 -7 -337 -1 -33 -5 -67 -9 -76 -4 -8 -6 -35 -5 -59 2 -27 -1 -44 -9 -47 -8 -3 -13 4 -13 16 0 12 -6 21 -15 21 -20 0 -19 -15 2 -35 13 -13 14 -24 7 -53 -6 -24 -15 -36 -24 -35 -8 2 -25 -15 -38 -37 -17 -30 -29 -40 -48 -40 -17 0 -27 -8 -34 -24 -5 -14 -28 -34 -54 -47 -43 -21 -47 -21 -64 -6 -23 21 -32 21 -68 2 -16 -8 -37 -15 -47 -15 -30 0 -155 72 -161 93 -3 14 -10 17 -26 12 -19 -6 -20 -4 -14 20 6 23 4 26 -12 22 -14 -5 -26 5 -46 37 -33 51 -33 54 -11 78 15 17 15 19 -3 39 -17 19 -20 46 -27 238 -4 119 -9 257 -10 306 -2 132 14 438 25 451 4 6 6 18 3 26 -3 8 -1 52 4 96 10 80 14 88 67 145 11 12 23 30 27 40 3 9 13 17 21 17 7 0 17 7 20 15 3 9 25 25 48 36 36 16 59 19 143 15 64 -3 111 -10 130 -20z"/> <path d="M4120 8195 c-36 -7 -87 -13 -113 -14 -26 -1 -64 -8 -84 -16 -19 -8 -50 -15 -67 -15 -17 0 -44 -7 -60 -15 -15 -8 -37 -15 -49 -15 -20 0 -170 -56 -242 -90 -43 -21 -148 -87 -216 -135 -36 -26 -49 -29 -110 -29 -38 1 -69 -2 -69 -5 0 -3 12 -17 26 -30 37 -35 102 -37 165 -6 27 14 53 25 59 25 5 0 36 18 67 40 32 22 65 40 74 40 8 0 26 11 39 26 17 17 31 23 46 20 12 -3 27 0 33 8 6 7 29 16 51 20 31 5 38 10 33 22 -5 14 -1 16 30 10 27 -5 47 -1 79 14 23 11 55 20 72 20 17 0 48 6 71 14 69 24 243 41 420 40 187 0 432 -26 468 -48 12 -7 51 -16 88 -19 36 -2 74 -9 85 -15 10 -6 26 -13 34 -16 8 -4 33 -17 55 -31 22 -13 56 -24 76 -25 20 0 42 -7 49 -15 7 -9 29 -23 49 -31 20 -9 51 -33 69 -53 25 -29 34 -33 41 -22 14 22 60 -12 67 -49 5 -20 15 -32 35 -39 22 -8 28 -16 26 -33 -1 -18 3 -23 19 -21 16 2 26 -9 42 -45 11 -26 23 -62 27 -79 4 -18 11 -35 16 -38 13 -9 11 -115 -2 -115 -6 0 -9 -10 -8 -22 1 -13 -3 -36 -9 -51 -7 -16 -12 -36 -12 -45 0 -16 -8 -26 -74 -93 -20 -20 -36 -41 -36 -48 0 -6 -7 -11 -16 -11 -8 0 -33 -19 -55 -41 -33 -35 -44 -40 -68 -36 -25 5 -28 4 -23 -19 3 -19 0 -24 -16 -24 -11 0 -27 -6 -34 -12 -20 -20 -97 -55 -158 -74 -30 -9 -74 -25 -98 -36 -24 -11 -62 -22 -85 -25 -23 -3 -59 -11 -80 -19 -20 -8 -54 -14 -75 -14 -20 0 -54 -5 -75 -11 -121 -33 -654 -16 -693 24 -4 4 -38 7 -75 7 -54 0 -67 3 -63 14 7 19 -22 28 -37 10 -10 -13 -14 -12 -30 2 -14 12 -30 15 -61 11 -24 -3 -35 -3 -25 0 35 9 10 33 -36 33 -12 0 -53 16 -91 35 -37 19 -77 35 -88 35 -10 0 -21 7 -24 15 -4 9 -19 15 -41 15 -30 0 -34 2 -23 15 13 16 6 35 -15 35 -8 0 -24 14 -37 30 -18 25 -24 28 -31 15 -10 -19 -46 -19 -53 0 -7 17 -54 21 -54 4 0 -8 -12 -10 -35 -6 -27 4 -35 2 -40 -13 -3 -10 -12 -21 -20 -24 -8 -3 -15 -10 -15 -16 0 -14 33 -13 48 2 19 19 88 -8 193 -78 54 -35 101 -64 105 -64 5 0 36 -13 69 -29 33 -16 80 -37 105 -46 25 -9 60 -23 78 -31 18 -8 40 -14 48 -14 9 0 37 -6 63 -14 68 -22 136 -35 229 -46 45 -6 119 -14 165 -20 117 -14 299 -12 392 5 44 8 103 15 130 15 28 1 68 7 90 15 22 8 53 15 68 15 16 0 43 6 60 14 18 8 46 16 62 19 31 5 75 19 133 43 54 22 106 46 122 55 8 4 35 18 58 30 76 38 213 146 267 210 35 41 95 146 95 165 1 11 7 30 15 44 41 72 1 258 -79 365 -62 83 -228 220 -309 255 -12 6 -29 14 -37 19 -8 5 -33 17 -55 26 -22 10 -52 24 -67 32 -14 7 -37 13 -51 13 -13 0 -30 7 -37 15 -7 8 -25 15 -40 15 -15 0 -41 7 -56 15 -16 8 -42 15 -57 15 -16 0 -38 5 -49 11 -12 6 -60 15 -107 20 -47 4 -106 13 -131 18 -63 14 -431 11 -510 -4z"/> <path d="M8765 8195 c-33 -8 -82 -14 -108 -14 -26 -1 -64 -8 -84 -16 -19 -8 -49 -15 -65 -15 -16 0 -45 -7 -65 -15 -19 -8 -43 -15 -52 -15 -9 0 -29 -7 -45 -15 -15 -8 -36 -15 -46 -15 -10 0 -45 -13 -78 -30 -34 -16 -63 -30 -66 -30 -21 0 -218 -132 -274 -184 -43 -40 -135 -160 -146 -191 -40 -114 -49 -226 -21 -279 8 -15 15 -34 15 -42 0 -17 41 -98 52 -102 4 -2 8 -9 8 -16 0 -7 30 -41 66 -77 37 -35 74 -72 82 -81 9 -10 20 -18 25 -18 5 0 26 -12 46 -27 54 -42 89 -61 201 -110 19 -9 47 -22 62 -30 14 -7 37 -13 51 -13 13 0 30 -7 37 -15 7 -8 25 -15 40 -15 15 0 44 -7 63 -15 20 -8 50 -15 67 -15 17 0 41 -5 52 -11 22 -12 74 -18 341 -40 149 -12 152 -12 452 20 77 8 155 24 226 47 26 8 55 14 66 14 11 0 28 7 39 15 10 8 28 15 40 15 11 0 29 7 40 15 10 8 25 15 31 15 27 0 240 112 254 133 7 9 28 22 93 56 43 23 81 27 91 11 7 -12 65 -14 65 -2 0 5 -13 21 -29 36 -22 21 -35 26 -51 21 -13 -4 -33 -2 -46 6 -18 9 -30 10 -46 2 -40 -19 -62 -27 -82 -27 -20 -1 -36 -26 -17 -26 6 0 11 -5 11 -10 0 -6 -15 -8 -40 -4 -35 6 -40 4 -40 -13 0 -13 -13 -25 -38 -36 -21 -9 -43 -17 -47 -17 -5 0 -18 -8 -29 -18 -27 -25 -99 -52 -135 -52 -16 0 -34 -7 -41 -15 -7 -8 -22 -15 -33 -15 -11 0 -29 -8 -40 -17 -15 -13 -21 -15 -24 -5 -5 14 -33 16 -33 2 0 -5 5 -10 12 -10 6 0 8 -3 5 -6 -4 -4 -43 -6 -88 -5 -60 2 -85 -2 -97 -12 -10 -9 -46 -18 -82 -21 -36 -3 -90 -8 -122 -12 -35 -3 -64 -1 -78 6 -17 9 -25 9 -39 -4 -18 -16 -43 -21 -54 -10 -3 4 -52 7 -109 8 -108 2 -261 22 -290 37 -10 5 -40 9 -67 9 -27 0 -62 7 -77 15 -16 8 -37 15 -46 15 -9 0 -20 5 -23 10 -3 6 -19 10 -34 10 -15 0 -31 4 -37 9 -5 5 -43 23 -84 40 -115 49 -157 70 -171 87 -7 8 -29 24 -48 34 -20 10 -52 33 -71 51 -19 18 -42 32 -51 31 -12 -2 -15 7 -14 43 1 30 -1 43 -8 36 -12 -12 -37 -3 -37 13 0 6 -11 33 -26 59 -37 71 -45 198 -15 259 11 24 21 52 21 60 0 9 11 25 25 36 14 11 25 27 25 36 0 8 11 18 25 22 31 8 56 35 37 41 -16 6 -6 23 14 23 8 0 14 -8 14 -17 0 -14 2 -15 13 -4 10 11 10 14 0 18 -20 7 -15 21 12 39 21 14 28 14 41 3 14 -11 19 -10 35 11 33 44 63 70 80 70 9 0 24 9 34 20 10 11 27 20 38 20 11 0 35 11 53 25 18 14 46 25 62 25 17 0 32 6 35 14 4 9 32 16 84 21 43 4 93 13 112 21 72 30 407 55 579 43 70 -5 155 -11 189 -13 33 -2 66 -7 71 -10 6 -3 45 -11 88 -16 43 -6 88 -17 100 -25 13 -8 34 -15 47 -15 13 0 32 -7 43 -15 10 -8 31 -15 46 -15 31 0 88 -30 88 -47 0 -6 15 -15 33 -18 17 -4 37 -11 42 -15 6 -4 22 -10 37 -14 16 -3 49 -19 74 -36 25 -16 52 -26 60 -23 8 3 30 -9 49 -26 43 -38 83 -40 145 -8 68 34 63 47 -15 47 -52 0 -76 5 -104 22 -20 12 -38 25 -41 28 -24 27 -193 118 -290 155 -25 9 -60 23 -78 31 -18 8 -41 14 -51 14 -10 0 -32 7 -47 15 -16 8 -44 15 -62 15 -18 0 -42 5 -53 11 -11 6 -57 15 -102 20 -45 5 -104 13 -132 19 -78 14 -450 11 -520 -5z"/> <path d="M11450 7631 c-12 -8 -15 -35 -14 -148 0 -77 4 -144 7 -150 4 -5 47 -13 97 -17 51 -4 99 -11 108 -16 9 -5 43 -20 76 -34 32 -14 77 -45 100 -68 45 -47 106 -140 106 -163 0 -8 6 -29 14 -47 8 -18 22 -90 32 -160 14 -107 15 -139 5 -200 -7 -40 -16 -109 -20 -153 -14 -130 -39 -252 -73 -350 -6 -16 -13 -43 -15 -60 -3 -16 -9 -34 -13 -40 -4 -5 -11 -26 -15 -45 -4 -19 -11 -39 -14 -45 -4 -5 -18 -41 -30 -80 -12 -38 -28 -83 -36 -100 -23 -54 -34 -79 -70 -170 -35 -87 -186 -394 -239 -485 -14 -25 -28 -51 -31 -57 -3 -7 -7 -19 -10 -25 -3 -7 -14 -26 -25 -43 -11 -16 -24 -39 -30 -50 -6 -11 -19 -33 -30 -50 -11 -16 -24 -40 -30 -53 -9 -21 -78 -131 -151 -240 -16 -23 -29 -45 -29 -48 0 -4 -13 -23 -30 -44 -16 -21 -30 -43 -30 -49 0 -6 -3 -11 -7 -11 -7 0 -75 -94 -108 -148 -5 -9 -44 -61 -85 -115 -41 -54 -92 -122 -113 -150 -20 -29 -45 -61 -55 -72 -10 -11 -33 -40 -52 -65 -19 -24 -42 -52 -50 -60 -8 -9 -33 -38 -55 -65 -45 -56 -107 -127 -116 -135 -3 -3 -39 -43 -79 -90 -87 -102 -276 -295 -460 -470 -143 -136 -159 -150 -229 -208 -25 -21 -76 -64 -115 -98 -187 -159 -624 -473 -795 -569 -11 -6 -25 -16 -32 -22 -31 -25 -539 -283 -557 -283 -6 0 -37 -13 -70 -30 -34 -16 -69 -30 -80 -30 -10 0 -27 -7 -38 -15 -10 -8 -28 -15 -40 -15 -11 0 -29 -7 -40 -15 -10 -8 -28 -15 -39 -15 -11 0 -33 -7 -49 -15 -15 -8 -37 -15 -48 -15 -11 0 -34 -6 -51 -14 -18 -8 -43 -16 -57 -19 -14 -3 -38 -10 -55 -15 -68 -23 -144 -42 -171 -42 -16 0 -45 -5 -64 -11 -19 -6 -62 -14 -95 -19 -33 -4 -85 -12 -115 -18 -121 -24 -429 -36 -616 -23 -98 6 -211 11 -251 11 -40 0 -98 7 -130 15 -31 8 -78 15 -104 15 -26 0 -60 5 -76 11 -15 6 -55 14 -88 19 -130 20 -191 33 -223 46 -18 8 -43 14 -56 14 -13 0 -40 7 -59 15 -20 8 -49 15 -64 15 -15 0 -37 7 -47 15 -11 8 -34 15 -50 15 -17 0 -40 7 -50 15 -11 8 -30 15 -42 15 -19 0 -126 38 -212 76 -18 8 -39 14 -47 14 -7 0 -43 13 -78 30 -36 16 -72 30 -80 30 -8 0 -20 7 -27 15 -7 8 -18 15 -25 15 -8 0 -26 7 -42 15 -40 21 -283 135 -287 135 -3 0 -39 20 -80 45 -42 25 -79 45 -81 45 -3 0 -24 12 -48 27 -58 38 -80 51 -97 59 -49 24 -243 148 -268 171 -7 7 -20 13 -27 13 -8 0 -18 6 -22 13 -4 7 -33 31 -63 52 -30 22 -68 50 -85 62 -16 12 -46 33 -66 47 -20 13 -43 31 -51 40 -15 14 -98 82 -172 139 -31 24 -96 80 -166 142 -157 142 -582 579 -646 667 -13 17 -28 34 -32 37 -4 3 -30 35 -57 71 -26 36 -53 70 -60 75 -17 15 -133 170 -188 250 -26 39 -70 102 -98 140 -28 39 -55 82 -61 98 -5 15 -14 27 -19 27 -5 0 -9 5 -9 11 0 6 -13 28 -28 48 -16 20 -32 43 -35 51 -4 8 -16 29 -27 45 -11 17 -24 39 -29 51 -5 11 -27 50 -48 85 -21 35 -55 98 -76 139 -43 84 -53 102 -67 128 -6 9 -13 24 -16 32 -16 41 -46 100 -55 105 -5 4 -9 14 -9 23 0 9 -16 55 -36 102 -20 47 -40 94 -44 105 -28 75 -44 114 -56 143 -8 18 -14 43 -14 55 0 13 -7 32 -15 43 -8 10 -14 28 -15 39 0 11 -6 40 -14 65 -72 229 -103 410 -111 645 -7 198 11 386 46 470 4 11 11 31 14 45 7 27 26 73 53 130 39 81 159 219 228 263 69 43 156 87 173 87 10 0 26 7 37 15 10 8 28 15 38 15 28 0 107 42 103 54 -2 6 -14 13 -28 14 -13 2 -28 8 -33 13 -15 14 -42 11 -56 -6 -7 -8 -23 -15 -35 -15 -13 0 -25 -7 -29 -15 -3 -8 -14 -15 -25 -15 -11 0 -23 -5 -26 -10 -3 -6 -17 -10 -29 -10 -13 0 -29 -7 -36 -15 -9 -11 -16 -12 -30 -3 -24 15 -48 4 -52 -24 -2 -17 -11 -24 -31 -26 -16 -2 -31 -10 -34 -18 -3 -8 -11 -14 -18 -14 -7 0 -21 -12 -30 -27 -10 -16 -24 -32 -32 -36 -7 -4 -13 -14 -13 -21 0 -8 -7 -17 -15 -20 -9 -3 -21 -19 -26 -36 -6 -16 -17 -30 -25 -30 -9 0 -14 -11 -14 -32 0 -23 -3 -29 -9 -19 -13 20 -31 4 -31 -29 0 -16 -9 -44 -19 -62 -11 -18 -27 -59 -35 -90 -8 -32 -21 -72 -30 -90 -25 -56 -35 -184 -34 -438 1 -229 2 -250 24 -316 13 -39 24 -91 24 -116 0 -30 7 -54 20 -71 11 -14 20 -40 20 -59 0 -19 4 -38 9 -43 11 -11 29 -100 38 -178 3 -34 11 -50 25 -58 15 -8 17 -14 9 -22 -6 -6 -11 -25 -11 -41 0 -23 3 -27 12 -18 25 25 39 14 32 -27 -5 -33 -3 -41 15 -50 11 -7 21 -20 21 -31 0 -10 4 -21 9 -24 5 -3 14 -28 21 -56 7 -31 17 -50 26 -50 10 0 14 -10 12 -35 -1 -22 5 -45 18 -62 11 -16 26 -49 33 -75 8 -29 20 -50 32 -53 23 -8 34 -42 19 -60 -10 -12 -9 -15 4 -15 12 0 16 -10 16 -37 1 -36 2 -37 15 -19 17 23 18 22 38 -26 9 -21 21 -38 27 -38 6 0 8 -14 4 -39 -6 -37 7 -63 21 -41 9 15 25 2 18 -16 -7 -18 27 -84 42 -84 15 0 65 -77 65 -100 0 -10 -5 -20 -11 -22 -6 -2 -9 -13 -6 -23 5 -19 5 -18 12 3 11 33 30 21 33 -22 3 -28 9 -39 27 -46 15 -6 35 -31 54 -68 16 -32 37 -64 46 -72 9 -7 25 -33 36 -57 11 -23 26 -43 33 -43 7 0 20 -7 27 -16 11 -14 11 -18 -4 -29 -25 -18 -22 -26 33 -73 28 -24 50 -50 50 -58 0 -7 6 -14 13 -14 6 0 23 -16 37 -35 14 -19 31 -32 38 -30 18 7 25 -20 12 -45 -8 -15 -8 -26 -2 -32 7 -7 12 -3 17 11 3 12 10 21 14 21 7 0 67 -86 79 -113 2 -4 26 -31 54 -60 27 -29 58 -61 69 -73 15 -16 18 -28 13 -50 -5 -24 -4 -27 7 -16 23 21 39 14 39 -18 0 -32 9 -37 28 -18 17 17 28 0 14 -22 -7 -11 -8 -20 -3 -20 6 0 13 5 16 10 10 17 35 -8 35 -34 0 -27 31 -56 82 -80 39 -17 49 -41 26 -64 -10 -10 -5 -11 21 -6 31 7 33 5 26 -15 -9 -29 30 -70 48 -52 16 16 27 14 27 -7 0 -9 9 -23 20 -30 11 -7 20 -21 20 -31 0 -11 6 -23 12 -28 13 -7 18 -9 50 -11 9 -1 19 -10 22 -20 3 -9 16 -22 28 -27 16 -7 22 -18 21 -33 -2 -18 2 -22 27 -22 23 0 33 -6 40 -24 4 -13 25 -33 44 -46 20 -12 41 -31 47 -42 8 -14 18 -19 35 -15 13 2 21 0 18 -5 -9 -15 25 -58 46 -58 10 0 21 -9 25 -19 3 -10 15 -21 25 -24 14 -3 18 -10 14 -22 -5 -13 -2 -15 21 -9 25 6 27 5 20 -16 -6 -19 -4 -21 14 -15 19 6 21 4 15 -19 -6 -25 -4 -26 25 -20 24 5 31 3 31 -9 0 -16 9 -20 69 -32 33 -7 34 -8 16 -21 -15 -11 -16 -17 -7 -26 10 -10 17 -10 33 0 23 15 45 6 31 -11 -11 -14 2 -57 18 -57 5 0 10 9 10 21 0 24 18 21 34 -4 8 -13 7 -20 -4 -27 -11 -7 -3 -10 28 -10 31 0 42 -4 42 -16 0 -8 15 -21 33 -29 17 -8 57 -31 87 -53 42 -29 54 -44 52 -60 -3 -22 12 -30 23 -12 3 6 15 10 27 10 16 0 19 -5 14 -24 -5 -21 -2 -24 32 -30 44 -7 109 -40 138 -69 11 -12 38 -31 60 -42 21 -11 42 -24 46 -30 4 -5 10 -6 14 -3 3 4 -1 14 -10 23 -17 17 -21 35 -8 35 4 0 13 -9 20 -20 7 -11 23 -20 36 -20 13 0 29 -6 35 -14 10 -12 7 -15 -16 -18 -15 -2 -27 -7 -26 -13 3 -15 42 -18 58 -5 17 14 49 5 40 -10 -4 -6 -1 -17 5 -25 12 -14 26 -14 83 2 13 3 16 -1 15 -18 -3 -19 4 -24 46 -33 27 -6 51 -17 54 -23 2 -7 14 -13 27 -13 12 0 28 -7 35 -15 7 -8 27 -15 44 -15 17 0 54 -12 81 -25 28 -14 58 -25 68 -25 9 0 17 -4 17 -9 0 -5 16 -19 35 -31 28 -17 39 -19 50 -10 16 13 40 3 69 -29 11 -12 31 -21 46 -21 15 0 40 -6 56 -14 92 -44 105 -48 154 -44 45 3 49 1 44 -16 -5 -16 -2 -18 20 -12 28 7 180 -26 234 -51 24 -12 39 -13 55 -6 23 11 87 6 87 -7 0 -4 -10 -12 -22 -18 -21 -10 -19 -11 19 -11 23 -1 45 4 48 9 10 16 51 12 66 -6 10 -12 25 -15 64 -11 27 2 42 2 33 0 -10 -2 -18 -9 -18 -14 0 -12 66 -11 113 2 32 9 42 8 57 -6 14 -13 37 -16 102 -15 196 2 225 1 286 -11 51 -9 89 -9 184 1 90 10 122 10 130 2 14 -14 68 -16 68 -3 0 5 -10 12 -22 15 -13 2 11 4 52 3 46 -1 84 3 99 12 14 8 36 10 56 7 18 -4 45 -1 61 5 16 6 61 12 99 14 55 2 71 6 73 19 2 9 16 19 30 22 15 3 39 10 54 16 16 6 52 7 87 3 53 -6 60 -5 70 13 7 13 26 23 51 27 23 4 61 18 85 32 35 19 48 22 64 14 11 -6 24 -11 30 -11 15 0 14 27 -1 33 -8 2 -9 8 -4 13 5 5 11 4 13 -3 7 -19 50 -15 65 5 19 28 57 45 83 38 29 -7 85 12 85 29 0 8 10 17 23 21 12 3 29 12 37 19 8 7 50 25 93 39 43 15 88 31 100 36 12 5 34 11 50 14 15 4 27 13 27 21 0 8 13 15 33 17 17 2 31 7 29 13 -5 15 30 24 67 18 24 -4 32 -2 27 6 -4 6 -14 11 -22 11 -8 0 -14 5 -14 10 0 6 6 10 13 10 6 0 41 19 77 42 77 50 146 79 167 71 12 -5 14 -1 8 16 -6 20 -4 22 14 16 13 -4 27 0 39 12 36 34 61 52 100 72 22 11 42 27 45 36 4 8 13 15 21 15 7 0 29 14 47 31 19 17 41 34 51 38 9 3 27 22 40 41 13 19 35 37 48 40 24 5 49 22 92 62 10 10 23 18 29 18 6 0 24 14 40 31 22 24 33 29 51 23 19 -6 21 -5 11 8 -15 17 -7 28 19 28 10 0 22 10 27 24 11 27 31 37 60 29 22 -6 30 12 9 20 -10 3 -8 10 5 23 16 18 17 18 17 -4 0 -24 7 -27 30 -12 13 9 13 12 -4 25 -25 19 -14 44 24 51 16 4 30 10 30 13 0 4 6 16 14 27 15 19 15 19 29 0 17 -23 41 -12 34 15 -4 14 3 24 24 34 16 9 29 20 29 25 0 6 7 10 15 10 9 0 15 9 15 25 0 28 25 44 43 26 6 -6 18 -11 26 -10 10 0 8 3 -6 9 -16 7 -20 14 -15 32 9 36 33 50 54 31 15 -13 17 -12 20 13 2 16 12 33 23 39 37 18 95 78 95 97 0 10 11 23 24 29 13 6 29 25 37 42 9 21 21 31 32 30 11 0 23 9 29 23 6 13 18 24 26 24 15 0 62 45 62 60 0 4 -6 10 -12 13 -7 2 -10 8 -5 12 4 5 12 4 18 -2 20 -20 39 -3 39 33 0 19 5 34 10 34 6 0 10 -9 10 -20 0 -25 12 -26 33 -2 22 24 21 32 -3 32 -27 0 -25 12 5 40 l25 23 0 -27 c0 -18 4 -26 13 -23 6 2 12 18 12 36 0 27 4 33 30 39 18 5 31 16 35 29 3 12 17 31 33 43 15 12 27 31 27 44 0 30 70 125 93 126 10 0 20 7 23 15 4 8 14 15 24 15 25 0 35 17 20 35 -7 8 -9 22 -6 31 5 13 9 14 21 4 22 -18 38 -1 32 35 -5 30 -3 33 26 42 22 6 39 21 54 48 12 21 31 43 43 47 13 5 20 14 17 22 -3 7 6 25 19 39 13 14 24 32 24 38 0 12 9 24 58 73 12 13 22 31 22 40 0 9 5 16 10 16 6 0 10 6 10 13 0 7 16 32 35 54 19 23 35 46 35 51 0 6 9 14 20 17 11 3 20 15 20 25 0 10 14 32 30 48 17 17 30 40 30 52 0 11 8 30 18 41 11 10 25 32 33 47 27 54 92 142 105 142 17 0 18 22 2 38 -9 9 -6 12 15 12 24 0 26 2 17 26 -13 33 -13 34 5 34 8 0 15 -7 15 -15 0 -8 4 -15 9 -15 13 0 22 28 11 35 -16 10 -11 43 8 57 24 16 42 51 42 77 0 12 4 21 9 21 6 0 11 19 13 42 2 31 8 44 21 46 10 2 17 -3 17 -12 0 -9 5 -16 10 -16 6 0 8 15 4 39 -7 42 3 66 48 121 16 19 34 41 40 49 7 8 13 33 14 55 2 57 1 55 28 65 19 8 24 19 29 62 4 30 15 65 25 79 27 36 92 175 92 197 1 10 7 29 15 43 8 14 14 38 15 53 0 26 11 58 43 125 6 13 10 34 9 47 -1 13 3 27 8 30 6 3 10 22 10 41 0 22 7 40 20 51 14 12 20 30 20 58 0 22 5 67 11 100 5 33 16 101 24 150 28 172 11 491 -27 529 -10 10 -18 29 -18 43 0 27 -36 93 -50 93 -13 0 -43 67 -36 79 3 5 -2 7 -13 4 -13 -3 -21 2 -26 16 -3 12 -22 28 -41 36 -19 8 -34 20 -34 28 0 10 -8 13 -24 10 -17 -4 -25 0 -28 15 -5 18 -12 20 -47 15 -37 -5 -41 -4 -41 16 0 18 -6 21 -40 21 -31 0 -38 3 -34 15 4 10 0 15 -15 15 -12 0 -21 6 -21 15 0 7 -8 19 -17 24 -16 10 -14 14 17 41 31 26 40 29 87 25 60 -6 103 -20 103 -35 0 -5 5 -10 12 -10 11 0 94 -37 153 -68 17 -8 46 -33 66 -54 25 -26 42 -36 53 -32 9 3 16 1 16 -5 0 -6 -7 -11 -15 -11 -22 0 -18 -28 5 -42 11 -7 20 -18 20 -24 0 -5 16 -25 36 -42 39 -35 51 -66 64 -175 5 -38 14 -74 19 -81 19 -22 33 -206 26 -326 -10 -152 -12 -170 -30 -270 -8 -47 -18 -107 -21 -135 -4 -27 -15 -59 -25 -70 -10 -11 -21 -40 -25 -65 -4 -25 -13 -52 -21 -61 -7 -9 -11 -23 -7 -32 4 -11 0 -19 -10 -23 -18 -7 -21 -40 -6 -79 8 -20 7 -27 -5 -31 -17 -7 -34 -41 -65 -134 -13 -36 -33 -91 -46 -122 -13 -32 -24 -66 -24 -77 0 -14 -5 -18 -20 -14 -18 5 -20 0 -20 -43 0 -27 -7 -58 -15 -68 -8 -11 -15 -28 -15 -38 0 -11 -11 -29 -24 -41 -12 -12 -29 -40 -36 -62 -7 -22 -21 -52 -31 -66 -10 -14 -21 -37 -24 -51 -4 -15 -13 -29 -21 -32 -8 -3 -14 -20 -14 -41 0 -21 -6 -38 -14 -41 -8 -3 -16 -17 -20 -32 -10 -47 -22 -59 -46 -44 -11 6 -22 12 -25 12 -10 0 -5 -36 7 -48 9 -9 8 -16 -5 -30 -9 -10 -17 -27 -17 -36 0 -10 -9 -20 -20 -23 -23 -6 -26 -23 -7 -42 10 -11 9 -13 -6 -8 -12 5 -20 1 -24 -11 -15 -46 -55 -122 -63 -122 -13 0 -50 -41 -50 -57 0 -20 -50 -123 -59 -123 -5 0 -11 10 -15 23 -5 18 -8 19 -16 7 -6 -9 -6 -18 0 -24 22 -22 -3 -74 -44 -89 -14 -5 -17 -13 -12 -32 6 -23 4 -25 -19 -19 -22 5 -25 3 -25 -20 0 -14 -3 -26 -8 -26 -4 0 -16 -16 -27 -36 -11 -21 -31 -41 -47 -46 -29 -10 -38 -44 -17 -65 8 -8 8 -13 0 -17 -6 -4 -11 -2 -11 3 0 14 -27 14 -35 0 -4 -6 2 -13 14 -16 36 -9 11 -25 -30 -18 -25 4 -39 3 -39 -4 0 -6 9 -11 20 -11 23 0 26 -13 6 -29 -8 -6 -20 -26 -27 -44 -26 -64 -116 -167 -146 -167 -11 0 -14 -7 -11 -24 4 -19 1 -23 -10 -18 -12 4 -14 1 -9 -12 6 -14 3 -17 -9 -12 -24 9 -35 -3 -22 -24 9 -14 9 -22 -1 -34 -15 -18 -41 -22 -41 -6 0 23 -17 7 -44 -43 -17 -28 -29 -59 -28 -68 2 -9 -12 -22 -33 -32 -19 -9 -35 -21 -35 -26 0 -9 -20 -35 -73 -91 -48 -51 -97 -119 -97 -134 0 -10 -12 -16 -37 -18 -38 -3 -41 -7 -28 -41 6 -13 0 -20 -24 -28 -18 -7 -31 -18 -31 -28 0 -37 -54 -58 -63 -23 -2 9 -3 4 -1 -12 5 -38 -12 -57 -42 -50 -26 7 -31 -5 -12 -24 9 -9 6 -17 -12 -37 -27 -28 -40 -32 -40 -10 0 8 5 15 10 15 6 0 10 8 10 18 -1 15 -2 15 -13 1 -7 -8 -20 -18 -29 -22 -22 -8 -23 -23 -3 -31 13 -4 14 -10 5 -26 -6 -11 -17 -20 -26 -20 -8 0 -17 -7 -20 -15 -3 -8 -22 -24 -41 -36 -19 -12 -39 -33 -44 -47 -7 -19 -13 -22 -21 -14 -20 20 -31 14 -24 -13 6 -23 4 -24 -24 -19 -25 6 -31 3 -40 -20 -5 -14 -16 -26 -25 -26 -9 0 -15 -9 -15 -21 0 -30 -41 -65 -85 -73 -29 -6 -34 -10 -25 -21 13 -16 -23 -48 -76 -65 -19 -6 -34 -16 -34 -22 0 -14 -75 -88 -89 -88 -6 0 -17 -11 -23 -25 -11 -25 -68 -65 -93 -65 -8 0 -18 -6 -22 -14 -4 -8 -30 -26 -58 -40 -27 -15 -52 -30 -55 -34 -3 -4 -18 -14 -35 -22 -16 -9 -34 -25 -40 -38 -6 -14 -16 -20 -26 -17 -27 9 -49 -6 -49 -31 0 -14 -6 -24 -14 -24 -14 0 -43 -21 -93 -67 -13 -13 -30 -23 -38 -23 -8 0 -18 -6 -22 -14 -4 -7 -22 -20 -39 -29 -17 -9 -36 -23 -43 -31 -8 -9 -22 -16 -32 -16 -11 0 -19 -4 -19 -10 0 -5 -13 -10 -29 -10 -43 0 -60 -9 -76 -41 -14 -25 -18 -27 -42 -18 -23 9 -29 6 -49 -18 -17 -21 -33 -29 -75 -34 -52 -6 -53 -6 -21 -14 39 -9 31 -24 -20 -34 -24 -5 -33 -12 -33 -26 0 -22 -31 -33 -48 -16 -21 21 -57 13 -67 -15 -8 -20 -15 -24 -31 -19 -12 4 -27 1 -37 -7 -27 -23 -85 -54 -115 -62 -15 -3 -27 -11 -27 -16 0 -5 -17 -12 -37 -16 -21 -3 -49 -13 -63 -22 -13 -8 -38 -18 -55 -22 -17 -3 -30 -12 -30 -20 0 -12 -15 -15 -75 -13 -41 0 -63 -1 -47 -4 15 -2 27 -10 27 -16 0 -17 -153 -57 -174 -45 -9 5 -33 7 -54 5 -32 -3 -34 -5 -14 -12 34 -11 9 -35 -38 -35 -20 0 -63 -9 -95 -20 -32 -11 -72 -20 -89 -20 -17 0 -55 -9 -85 -21 -45 -17 -62 -18 -100 -10 -35 7 -50 6 -61 -3 -8 -7 -30 -18 -49 -25 -39 -13 -291 -14 -366 -1 -36 6 -54 4 -65 -4 -11 -10 -42 -11 -130 -4 -63 5 -167 7 -231 5 -65 -3 -121 -2 -125 3 -10 8 -124 26 -234 36 -41 4 -80 13 -87 19 -7 8 -35 12 -70 11 -32 -1 -67 3 -78 10 -11 6 -43 14 -72 17 -29 3 -66 13 -82 22 -17 8 -52 18 -78 22 -26 3 -54 12 -60 19 -8 8 -26 11 -48 7 -41 -7 -88 4 -80 17 3 6 15 10 25 10 10 0 22 5 25 10 11 18 -26 23 -81 10 -59 -14 -78 -8 -48 16 17 14 13 15 -52 9 -57 -5 -73 -3 -84 10 -7 8 -20 15 -30 15 -10 0 -23 7 -30 15 -7 8 -23 15 -36 15 -13 0 -28 9 -34 21 -10 17 -17 19 -55 14 -37 -6 -45 -4 -54 14 -8 13 -22 21 -39 21 -15 0 -42 9 -60 20 -18 11 -44 20 -57 20 -29 0 -34 24 -7 40 13 9 3 10 -44 5 -65 -6 -83 1 -56 21 15 12 14 13 -10 14 -16 0 -28 -6 -28 -12 -1 -9 -5 -8 -13 3 -7 8 -20 18 -29 22 -10 3 -18 11 -18 16 0 5 -12 12 -27 16 -27 6 -133 55 -143 65 -18 18 -89 60 -102 60 -9 0 -20 5 -23 10 -3 6 -15 10 -26 10 -11 0 -22 6 -25 14 -3 8 -21 17 -40 20 -26 5 -33 11 -31 28 2 16 -7 23 -43 34 -26 7 -57 25 -70 39 -13 14 -29 25 -37 25 -7 0 -30 15 -50 34 -43 37 -75 56 -97 56 -8 0 -28 12 -44 28 -43 39 -60 52 -70 52 -5 0 -17 9 -28 21 -12 13 -25 18 -40 15 -26 -7 -42 9 -19 18 28 10 15 33 -27 46 -24 8 -47 20 -51 28 -6 9 -18 11 -38 7 -29 -6 -40 7 -18 20 15 10 -19 45 -43 45 -11 0 -22 9 -25 20 -3 11 -12 20 -21 20 -8 0 -30 11 -48 25 -18 14 -37 25 -43 25 -17 0 -22 19 -11 40 10 18 8 20 -20 20 -16 0 -30 -5 -30 -11 0 -5 -4 -7 -10 -4 -6 4 -5 13 2 25 16 25 3 38 -22 22 -27 -16 -50 -15 -50 3 0 8 5 15 10 15 6 0 10 11 10 25 0 27 -24 35 -34 10 -9 -23 -38 -7 -30 18 5 17 3 19 -20 13 -15 -4 -26 -2 -26 4 0 5 5 10 10 10 6 0 10 7 10 15 0 8 -9 15 -19 15 -10 0 -21 7 -25 15 -3 8 -13 15 -23 15 -10 0 -33 17 -53 38 -19 22 -42 41 -50 44 -8 2 -14 17 -15 34 0 24 -4 29 -23 27 -29 -4 -40 24 -17 41 12 8 14 15 7 20 -6 3 -13 2 -17 -4 -12 -19 -43 -11 -47 12 -2 15 -11 24 -26 26 -35 5 -112 87 -112 120 0 19 -9 33 -29 47 -30 19 -51 53 -51 80 0 8 -7 15 -15 15 -8 0 -15 -4 -15 -10 0 -5 -6 -10 -13 -10 -16 0 -47 32 -47 48 0 16 27 15 33 0 4 -8 6 -7 6 3 1 9 -6 20 -14 23 -9 3 -23 22 -31 41 -16 40 -34 46 -34 11 0 -13 10 -30 22 -39 22 -15 22 -16 3 -16 -23 -1 -55 45 -55 78 0 12 -6 21 -15 21 -8 0 -15 9 -15 19 0 11 -9 23 -20 26 -11 3 -20 12 -20 19 0 23 -29 72 -70 116 -22 23 -42 51 -45 61 -4 11 -17 22 -31 25 -13 3 -24 11 -24 16 0 6 -13 26 -30 45 -16 18 -30 39 -30 45 0 7 -18 34 -41 60 -24 29 -39 55 -35 64 4 10 0 14 -12 12 -12 -2 -18 5 -20 27 -2 17 -9 35 -15 40 -19 16 -77 93 -77 102 0 5 -8 16 -17 25 -30 28 -41 45 -40 59 2 28 -24 75 -46 84 -12 6 -24 19 -26 30 -2 11 -9 24 -17 28 -8 4 -14 13 -14 20 0 23 -45 107 -58 107 -7 0 -17 11 -22 24 -5 13 -14 27 -20 31 -6 4 -8 20 -4 39 5 29 3 33 -17 32 -29 -1 -38 30 -13 48 19 14 12 36 -12 36 -8 0 -14 6 -14 14 0 8 -11 17 -24 20 -17 4 -25 15 -30 40 -4 19 -13 39 -21 46 -9 8 -12 22 -8 41 4 24 1 33 -16 45 -14 10 -20 22 -16 33 3 10 -1 24 -9 30 -8 7 -18 25 -21 41 -3 16 -14 30 -26 33 -15 4 -19 14 -19 51 0 51 -17 96 -36 96 -9 0 -11 10 -7 33 3 23 0 37 -11 46 -9 7 -16 23 -16 36 0 34 -21 88 -41 108 -11 10 -19 28 -19 40 0 12 -7 42 -16 67 -13 38 -14 51 -3 84 12 36 11 40 -9 56 -16 13 -24 36 -31 91 -6 41 -18 108 -27 149 -17 73 -18 106 -15 358 1 67 1 128 1 135 0 6 4 37 11 67 6 30 10 78 10 107 -1 28 3 54 9 58 5 3 10 17 10 30 0 13 16 59 35 101 19 42 34 88 33 102 -2 14 3 27 10 29 6 3 12 -3 12 -12 0 -9 6 -15 13 -12 7 2 12 23 12 55 -1 52 9 64 33 40 6 -6 15 -9 19 -5 4 4 1 13 -5 19 -22 22 -14 58 16 70 15 6 30 11 33 10 3 -1 4 11 1 25 -4 24 -3 25 21 20 26 -7 37 6 37 43 0 10 23 37 51 61 29 24 59 52 68 62 20 22 31 22 31 -1 0 -10 -13 -26 -30 -35 -16 -10 -30 -23 -30 -29 0 -5 -11 -19 -26 -30 -14 -11 -23 -22 -20 -25 2 -3 17 7 33 21 15 14 35 29 44 31 9 3 21 17 27 30 6 14 16 25 22 25 5 0 10 6 10 14 0 19 47 56 71 56 11 0 19 5 19 10 0 6 15 10 33 10 17 0 39 5 47 10 13 8 11 11 -7 16 -13 4 -23 10 -23 15 0 12 37 11 61 -2 16 -8 25 -7 38 5 10 9 25 16 33 16 9 0 21 7 28 15 7 8 21 15 31 15 30 0 90 41 87 59 -4 18 -40 19 -128 3 -190 -35 -443 -184 -574 -338 -91 -107 -196 -281 -196 -328 0 -12 -7 -30 -15 -40 -8 -11 -15 -31 -15 -45 -1 -14 -7 -37 -15 -51 -8 -14 -14 -41 -15 -61 0 -20 -8 -54 -17 -75 -14 -33 -16 -77 -16 -299 1 -147 6 -293 13 -335 23 -145 28 -176 40 -235 6 -33 16 -73 22 -90 6 -16 13 -48 17 -70 4 -22 13 -50 19 -62 7 -12 12 -31 12 -43 0 -12 6 -36 14 -53 8 -18 16 -43 19 -57 6 -33 26 -88 43 -123 8 -16 14 -35 14 -42 0 -15 22 -69 46 -117 8 -14 14 -35 14 -46 0 -11 7 -27 15 -36 8 -8 15 -20 15 -26 0 -7 6 -24 14 -38 16 -31 160 -329 170 -352 3 -8 15 -28 25 -45 11 -16 29 -48 41 -70 65 -119 85 -154 109 -190 15 -22 30 -47 34 -55 4 -8 15 -27 25 -42 9 -14 30 -48 46 -75 31 -52 72 -111 181 -261 39 -53 78 -108 88 -122 34 -50 234 -298 261 -325 23 -22 115 -128 162 -185 39 -47 239 -255 288 -300 22 -19 76 -69 120 -111 45 -42 99 -92 121 -110 23 -19 54 -47 70 -62 17 -16 68 -58 115 -95 95 -74 148 -116 170 -136 25 -22 310 -226 316 -226 4 0 23 -13 44 -30 21 -16 40 -30 43 -30 3 0 35 -20 71 -45 37 -25 69 -45 72 -45 3 0 25 -13 48 -28 22 -15 61 -38 86 -51 25 -12 59 -31 75 -41 17 -11 80 -44 140 -75 61 -31 117 -60 125 -65 8 -4 44 -22 80 -38 36 -17 95 -44 133 -61 37 -17 71 -31 76 -31 5 0 22 -6 38 -14 54 -27 98 -45 188 -76 50 -18 102 -38 117 -46 14 -8 37 -14 50 -14 12 -1 34 -7 48 -15 14 -8 36 -14 50 -15 15 0 30 -4 35 -9 6 -5 30 -13 55 -19 25 -6 59 -15 75 -20 63 -22 143 -42 164 -42 12 0 32 -5 43 -11 12 -7 47 -15 77 -20 107 -16 186 -31 242 -45 30 -8 78 -14 107 -14 28 0 63 -5 79 -11 109 -43 923 -42 1133 1 30 6 89 18 130 26 41 9 93 20 115 25 22 6 65 15 95 20 30 6 59 14 65 20 5 5 21 9 37 9 15 0 42 6 60 14 50 20 99 37 143 47 22 6 44 14 49 20 6 5 19 9 31 9 12 0 30 7 41 15 10 8 28 15 40 15 11 0 29 7 40 15 10 8 27 15 37 15 11 0 31 6 45 14 15 7 43 21 62 29 39 17 202 94 295 138 33 16 63 29 67 29 4 0 24 12 45 26 21 14 61 37 88 50 28 14 75 41 105 60 30 19 64 39 75 45 27 14 50 28 120 74 33 22 68 44 77 50 10 5 46 30 80 54 35 24 83 58 108 75 25 17 47 34 50 37 3 3 46 35 95 72 50 37 95 70 100 74 6 5 30 24 55 43 48 36 178 146 195 165 6 5 35 30 65 53 143 112 731 697 749 744 2 6 24 31 50 57 25 26 60 65 78 87 17 21 67 82 110 134 43 52 94 116 113 143 19 26 43 57 54 70 40 48 196 257 196 263 0 3 20 33 45 65 25 33 45 61 45 64 0 5 61 96 70 105 11 10 64 95 76 120 4 8 20 31 36 51 15 20 28 40 28 44 0 4 14 27 30 52 17 24 30 46 30 48 0 3 26 49 58 102 32 54 68 119 81 145 12 27 27 50 32 54 5 3 9 13 9 24 0 10 7 20 15 24 8 3 15 11 15 17 0 7 33 80 74 163 40 83 81 169 91 191 9 22 22 54 30 70 42 96 75 180 75 194 0 9 6 25 13 36 8 11 24 53 37 93 12 40 27 75 31 78 5 3 9 17 9 32 1 15 7 38 15 52 8 14 15 39 15 55 0 17 7 41 15 55 8 14 15 36 15 50 0 14 7 43 15 65 8 22 14 57 15 78 0 21 5 47 11 58 11 21 19 88 40 315 10 113 9 142 -5 211 -9 44 -16 97 -16 117 0 20 -7 53 -15 73 -8 19 -15 44 -15 53 0 10 -6 31 -14 47 -8 15 -25 50 -38 76 -37 78 -43 86 -114 164 -65 70 -200 173 -227 173 -7 0 -17 4 -22 9 -17 15 -151 51 -192 51 -21 0 -60 7 -87 15 -56 17 -65 18 -86 6z m-9820 -486 c0 -8 -4 -15 -10 -15 -5 0 -10 7 -10 15 0 8 5 15 10 15 6 0 10 -7 10 -15z"/> <path d="M1670 4650 c0 -11 5 -20 10 -20 6 0 10 9 10 20 0 11 -4 20 -10 20 -5 0 -10 -9 -10 -20z"/> <path d="M10660 3730 c-8 -5 -12 -12 -9 -15 8 -8 39 5 39 16 0 11 -11 11 -30 -1z"/> <path d="M2430 3675 c0 -14 5 -25 10 -25 6 0 10 11 10 25 0 14 -4 25 -10 25 -5 0 -10 -11 -10 -25z"/> <path d="M10157 3203 c-12 -11 -8 -23 8 -23 8 0 15 7 15 15 0 16 -12 20 -23 8z"/> <path d="M3335 2679 c-10 -14 -1 -21 19 -13 9 3 13 10 10 15 -7 12 -21 11 -29 -2z"/> <path d="M3475 2589 c-10 -15 1 -23 20 -15 9 3 13 10 10 16 -8 13 -22 13 -30 -1z"/> <path d="M8010 1660 c0 -5 9 -10 20 -10 11 0 20 5 20 10 0 6 -9 10 -20 10 -11 0 -20 -4 -20 -10z"/> </g> </svg>